<?xml version="1.0" standalone="no"?>
<!DOCTYPE svg PUBLIC "-//W3C//DTD SVG 20010904//EN"
 "http://www.w3.org/TR/2001/REC-SVG-20010904/DTD/svg10.dtd">
<svg version="1.0" xmlns="http://www.w3.org/2000/svg"
 width="1163.000000pt" height="1163.000000pt" viewBox="0 0 1163.000000 1163.000000"
 preserveAspectRatio="xMidYMid meet">
<metadata>
Created by potrace 1.14, written by Peter Selinger 2001-2017
</metadata>
<g transform="translate(0.000000,1163.000000) scale(0.100000,-0.100000)"
fill="#000000" stroke="none">
<path d="M5584 11611 c-2 -2 -39 -5 -81 -6 -43 -2 -78 -4 -78 -5 0 -1 -34 -3
-75 -5 -41 -2 -93 -6 -115 -9 -55 -7 -145 -18 -175 -21 -14 -1 -45 -6 -70 -10
-25 -4 -58 -9 -75 -11 -16 -1 -40 -5 -52 -8 -11 -2 -43 -8 -70 -12 -53 -9 -62
-11 -65 -13 -4 -3 -69 -13 -90 -14 -9 -1 -15 -4 -12 -8 2 -4 -6 -7 -19 -7 -32
0 -71 -7 -85 -16 -7 -4 -12 -5 -12 -2 0 2 -24 -2 -52 -10 -66 -18 -99 -26
-115 -27 -7 0 -13 -5 -13 -10 0 -5 -7 -7 -15 -4 -8 4 -17 2 -21 -4 -3 -6 -11
-8 -17 -6 -7 2 -20 0 -31 -5 -10 -6 -33 -12 -50 -15 -17 -3 -37 -10 -43 -15
-7 -6 -13 -8 -13 -5 0 4 -18 0 -40 -8 -22 -8 -40 -11 -40 -7 0 4 -4 2 -8 -5
-4 -7 -23 -15 -42 -18 -19 -3 -40 -11 -47 -17 -7 -6 -13 -7 -13 -3 0 4 -12 0
-26 -10 -15 -9 -23 -12 -19 -5 4 7 -3 5 -16 -3 -13 -9 -26 -15 -29 -15 -6 2
-161 -57 -207 -78 -17 -8 -38 -14 -47 -14 -9 0 -16 -4 -16 -10 0 -5 -7 -10
-16 -10 -9 0 -28 -6 -42 -13 -47 -24 -96 -45 -119 -52 -13 -3 -23 -11 -23 -17
0 -6 -3 -8 -6 -5 -4 3 -16 1 -28 -5 -11 -7 -23 -13 -26 -13 -5 -1 -186 -93
-263 -135 -131 -70 -172 -94 -185 -106 -7 -8 -18 -12 -23 -9 -5 4 -9 1 -9 -4
0 -6 -7 -11 -15 -11 -9 0 -18 -7 -21 -15 -4 -8 -14 -15 -25 -15 -10 0 -23 -8
-28 -17 -6 -10 -11 -14 -11 -10 0 4 -16 -4 -35 -19 -19 -14 -35 -22 -35 -18 0
5 -5 1 -11 -9 -6 -9 -14 -15 -20 -12 -5 4 -12 -1 -15 -9 -3 -9 -10 -14 -14
-11 -4 3 -10 -2 -14 -10 -3 -8 -12 -15 -21 -15 -8 0 -15 -4 -15 -10 0 -5 -7
-10 -15 -10 -8 0 -15 -4 -15 -10 0 -5 -6 -10 -14 -10 -8 0 -17 -7 -20 -16 -4
-9 -9 -14 -13 -10 -3 3 -12 -3 -20 -14 -8 -11 -23 -20 -34 -20 -11 0 -17 -4
-14 -10 3 -5 -1 -10 -9 -10 -9 0 -16 -4 -16 -10 0 -5 -5 -10 -10 -10 -11 0
-28 -13 -60 -44 -11 -11 -20 -16 -20 -11 0 4 -14 -6 -30 -24 -17 -17 -34 -31
-40 -31 -5 0 -13 -7 -18 -16 -5 -9 -12 -15 -16 -14 -6 1 -20 -10 -77 -62 -10
-10 -19 -15 -19 -12 0 3 -13 -10 -30 -28 -16 -18 -30 -29 -30 -25 0 4 -18 -11
-40 -33 -22 -22 -40 -38 -40 -35 0 3 -6 0 -14 -7 -8 -7 -12 -16 -9 -20 2 -5
-1 -8 -7 -8 -13 0 -65 -48 -214 -196 -169 -170 -216 -221 -209 -227 3 -4 -1
-7 -10 -7 -9 0 -17 -3 -17 -8 0 -4 -17 -26 -37 -48 -21 -23 -51 -58 -68 -79
-16 -21 -38 -45 -47 -54 -10 -8 -18 -19 -18 -24 0 -4 -12 -19 -26 -32 -15 -14
-24 -25 -20 -25 3 0 -2 -8 -12 -18 -33 -35 -62 -72 -62 -80 0 -4 -8 -15 -17
-24 -26 -25 -45 -48 -38 -48 4 0 -1 -7 -9 -16 -9 -8 -30 -37 -48 -62 -18 -26
-38 -53 -45 -60 -7 -7 -13 -17 -13 -21 0 -4 -8 -17 -18 -29 -15 -18 -61 -87
-119 -181 -13 -20 -25 -44 -29 -53 -3 -10 -11 -18 -16 -18 -5 0 -6 -4 -3 -10
3 -5 2 -10 -3 -10 -5 0 -17 -18 -27 -40 -10 -22 -22 -40 -27 -40 -4 0 -8 -9
-8 -20 0 -11 -4 -20 -10 -20 -5 0 -10 -7 -10 -15 0 -8 -4 -15 -8 -15 -5 0 -15
-18 -22 -40 -7 -22 -17 -40 -21 -40 -4 0 -13 -16 -20 -35 -7 -19 -17 -35 -22
-35 -4 0 -6 -4 -2 -9 3 -6 -3 -14 -12 -20 -10 -6 -14 -11 -9 -11 5 0 3 -7 -4
-15 -7 -8 -9 -15 -5 -15 5 0 1 -8 -8 -17 -8 -10 -16 -21 -17 -25 0 -4 -15 -38
-32 -75 -18 -38 -32 -72 -33 -76 0 -4 -7 -12 -15 -17 -8 -5 -11 -10 -6 -10 5
0 3 -7 -4 -15 -7 -8 -9 -15 -6 -15 4 0 1 -10 -6 -22 -7 -13 -13 -25 -14 -28
-2 -11 -35 -86 -45 -103 -5 -10 -7 -22 -4 -27 4 -6 1 -10 -4 -10 -6 0 -11 -6
-11 -13 0 -7 -8 -28 -19 -47 -10 -19 -19 -39 -19 -45 -1 -10 -38 -115 -52
-150 -8 -18 -22 -60 -26 -77 -1 -5 -3 -10 -4 -13 -1 -3 -4 -9 -5 -15 -1 -5 -4
-12 -5 -15 -1 -3 -4 -9 -5 -15 -1 -5 -4 -12 -5 -15 -1 -3 -4 -9 -5 -15 -1 -5
-3 -11 -4 -12 -2 -2 -5 -14 -7 -28 -3 -14 -9 -27 -14 -28 -6 -2 -8 -7 -5 -11
2 -5 -6 -42 -19 -84 -13 -42 -21 -79 -18 -82 3 -3 1 -5 -4 -5 -9 0 -11 -7 -15
-65 -1 -14 -5 -25 -9 -25 -3 0 -7 -6 -8 -12 -2 -31 -14 -84 -21 -93 -4 -5 -6
-20 -5 -32 0 -13 -2 -23 -6 -23 -4 0 -6 -10 -5 -22 1 -13 -1 -27 -5 -33 -4 -5
-8 -17 -9 -25 -3 -41 -7 -66 -13 -75 -3 -5 -4 -18 -3 -27 2 -10 0 -18 -3 -18
-4 0 -8 -10 -8 -22 -2 -21 -5 -44 -17 -118 -8 -45 -20 -124 -23 -155 -2 -16
-6 -55 -10 -85 -3 -30 -7 -72 -8 -92 0 -21 -3 -38 -6 -38 -3 0 -6 -28 -7 -63
-4 -87 -11 -222 -13 -222 -7 0 -4 -443 2 -452 5 -6 5 -14 -2 -18 -6 -3 -8 -10
-5 -15 4 -7 15 -149 19 -262 0 -16 3 -28 6 -28 3 0 5 -19 6 -42 0 -67 7 -121
16 -140 6 -12 5 -18 -2 -18 -6 0 -8 -4 -5 -10 8 -12 14 -43 20 -95 2 -22 6
-51 9 -65 2 -14 7 -45 10 -70 9 -59 14 -85 17 -85 1 0 3 -11 4 -25 2 -14 7
-41 11 -60 4 -19 8 -45 8 -57 1 -13 5 -23 10 -23 4 0 6 -6 3 -14 -3 -8 -3 -17
1 -20 3 -4 7 -14 8 -24 10 -59 13 -72 24 -92 9 -17 9 -21 0 -15 -7 4 -5 -6 4
-24 9 -17 14 -31 12 -31 -3 0 1 -19 10 -42 8 -22 12 -43 10 -45 -2 -2 7 -33
20 -69 13 -35 23 -67 24 -69 0 -3 0 -6 1 -7 0 -2 3 -12 5 -23 3 -11 6 -24 7
-30 1 -5 6 -16 10 -22 5 -7 5 -13 1 -13 -3 0 -1 -7 6 -15 7 -8 9 -15 5 -15 -4
0 -2 -7 5 -15 6 -8 9 -19 5 -25 -3 -5 -1 -10 4 -10 6 0 10 -3 9 -7 -3 -11 43
-146 52 -157 5 -5 6 -15 3 -22 -3 -8 0 -14 6 -14 6 0 11 -8 11 -18 0 -10 5
-23 12 -30 7 -7 9 -12 5 -12 -4 0 -2 -10 5 -22 7 -13 13 -27 14 -33 1 -12 39
-102 54 -127 5 -10 10 -25 10 -33 0 -8 5 -15 11 -15 6 0 9 -7 5 -15 -3 -8 -1
-15 4 -15 6 0 10 -3 9 -7 -2 -16 14 -53 23 -53 6 0 8 -6 5 -14 -3 -8 1 -17 9
-20 8 -3 14 -13 14 -23 0 -10 9 -33 20 -50 11 -18 17 -33 15 -33 -3 0 6 -18
20 -40 14 -22 25 -46 25 -54 0 -8 3 -16 8 -18 4 -1 23 -34 42 -73 19 -38 37
-72 40 -75 3 -3 12 -18 20 -35 8 -16 17 -32 20 -35 3 -3 12 -18 20 -35 8 -16
17 -32 20 -35 12 -12 70 -112 70 -121 0 -5 3 -9 8 -9 4 0 13 -13 20 -28 6 -16
21 -38 31 -49 11 -12 17 -24 14 -27 -4 -3 -1 -6 5 -6 6 0 14 -9 17 -20 3 -11
12 -26 19 -32 6 -7 22 -29 33 -48 19 -32 33 -49 72 -96 5 -7 7 -15 4 -18 -4
-3 -1 -6 5 -6 7 0 12 -4 12 -10 0 -5 8 -18 18 -28 30 -33 62 -72 57 -72 -5 0
25 -38 52 -66 7 -7 13 -15 13 -18 0 -6 37 -50 67 -82 7 -7 13 -18 13 -24 0 -6
4 -9 9 -6 5 4 15 -7 23 -24 7 -17 21 -33 30 -36 10 -3 17 -9 15 -13 -1 -5 13
-23 31 -40 17 -17 32 -33 32 -36 0 -7 124 -136 237 -249 146 -145 233 -227
233 -221 0 3 6 0 14 -7 8 -7 12 -16 9 -20 -2 -5 3 -8 11 -8 8 0 22 -10 30 -22
9 -12 16 -19 16 -14 0 5 9 -3 21 -18 11 -14 24 -26 29 -26 5 0 20 -10 33 -22
41 -40 72 -63 80 -60 4 1 7 -5 7 -14 0 -8 4 -13 8 -10 5 3 15 -4 22 -15 8 -10
19 -19 25 -19 5 0 21 -12 34 -25 13 -14 26 -24 28 -21 3 2 13 -3 22 -12 38
-36 71 -62 71 -54 0 4 5 -1 11 -11 5 -9 17 -17 24 -17 8 0 15 -4 15 -9 0 -5
14 -14 30 -21 17 -7 30 -16 30 -21 0 -5 11 -14 25 -19 14 -5 25 -14 25 -20 0
-5 7 -10 15 -10 8 0 15 -5 15 -11 0 -5 4 -8 9 -4 6 3 14 -3 20 -12 6 -10 11
-15 11 -10 0 6 85 -46 117 -73 7 -6 13 -7 13 -3 0 4 4 3 8 -3 10 -15 283 -170
294 -166 4 1 8 -2 8 -8 0 -5 9 -10 21 -10 11 0 17 -4 14 -10 -3 -5 3 -10 14
-10 12 0 21 -4 21 -10 0 -5 4 -10 9 -10 5 0 65 -27 134 -60 68 -33 129 -60
135 -60 7 0 12 -4 12 -10 0 -5 7 -10 15 -10 8 0 40 -12 72 -27 32 -15 60 -27
63 -28 8 -1 222 -84 255 -99 17 -7 46 -17 65 -21 19 -4 40 -11 45 -14 6 -4 30
-13 55 -20 25 -6 54 -16 65 -20 11 -5 40 -14 65 -21 25 -7 52 -15 60 -18 8 -3
18 -5 22 -4 4 1 23 -5 43 -14 20 -8 40 -12 45 -9 6 4 10 2 10 -4 0 -6 7 -8 15
-5 8 4 15 2 15 -3 0 -5 6 -10 13 -11 6 -1 26 -3 42 -5 17 -2 37 -7 45 -10 8
-4 26 -8 40 -9 14 -2 30 -6 35 -10 6 -4 32 -9 59 -12 26 -3 51 -8 56 -11 5 -3
21 -7 37 -10 60 -9 99 -16 123 -22 14 -3 36 -7 50 -9 14 -1 41 -5 60 -8 71
-12 136 -20 163 -21 15 0 27 -3 27 -6 0 -6 17 -7 132 -12 38 -1 68 -5 68 -8 0
-3 21 -5 46 -5 25 1 47 -1 49 -4 2 -3 35 -5 74 -5 39 1 71 -2 71 -5 0 -4 7 -7
15 -7 8 0 15 4 15 9 0 5 5 6 12 2 13 -8 448 -12 448 -4 0 3 37 6 83 7 137 2
237 8 237 13 0 3 15 5 33 6 31 1 90 7 192 20 28 3 60 7 73 7 12 1 22 3 22 7 0
3 17 6 38 7 32 1 77 9 77 13 0 1 16 3 35 5 19 2 49 7 65 10 17 4 39 8 50 10
11 2 29 6 40 8 11 2 38 8 60 12 53 11 49 10 130 30 39 10 76 18 83 18 6 0 12
4 12 8 0 4 8 8 18 7 21 0 64 9 96 22 13 5 27 6 30 3 3 -4 6 -1 6 6 0 7 4 9 10
6 5 -3 23 1 40 10 17 9 35 13 40 10 5 -3 11 -1 15 5 4 6 11 8 16 5 5 -4 9 -2
9 2 0 5 9 9 20 10 12 1 45 11 74 22 30 11 57 17 60 14 3 -4 6 -1 6 6 0 8 7 11
15 7 8 -3 15 -1 15 4 0 6 8 10 18 10 10 0 22 3 26 7 4 5 11 8 14 9 41 7 72 18
72 27 0 6 3 7 7 4 3 -4 12 -2 20 4 7 6 13 9 13 6 0 -5 52 14 115 43 20 10 76
32 85 35 3 1 36 16 74 33 38 18 73 32 77 32 5 0 9 5 9 12 0 6 3 9 6 6 3 -4 47
14 97 39 51 25 92 44 92 43 0 -1 24 12 53 29 29 17 57 31 62 31 6 0 10 5 10
11 0 5 4 8 9 5 5 -3 14 1 21 9 7 8 16 12 21 9 5 -3 9 -1 9 5 0 5 10 13 23 17
12 4 24 9 27 13 3 3 25 17 50 30 25 14 47 27 50 30 3 3 19 13 35 21 17 8 36
21 43 28 7 6 19 12 26 12 7 0 25 12 40 26 14 15 26 24 26 21 0 -4 38 20 85 53
47 33 90 60 95 60 4 0 10 3 12 8 4 9 85 72 92 72 7 0 41 27 73 57 13 13 26 22
29 22 6 -1 48 33 139 109 11 9 34 27 50 40 40 31 148 126 202 179 24 23 43 40
43 38 0 -2 54 51 120 117 66 65 120 124 120 130 0 6 3 9 6 5 3 -3 24 15 46 41
22 26 52 57 66 70 14 12 22 22 19 22 -4 0 6 13 21 28 15 16 43 48 62 71 19 24
40 48 45 54 6 7 28 35 50 62 22 28 43 52 48 53 4 2 7 8 7 13 0 8 7 17 55 70 8
9 15 19 15 23 0 4 6 13 13 20 6 8 19 24 27 36 8 13 23 32 33 42 9 10 17 25 17
33 0 8 4 15 9 15 5 0 28 30 52 68 24 37 46 69 50 72 3 3 14 21 25 39 10 19 26
43 34 53 8 10 13 20 10 21 -2 1 4 11 13 22 9 11 18 25 19 30 2 6 9 18 18 28 8
10 15 21 14 25 0 4 8 16 18 26 10 11 18 26 18 33 0 7 5 13 11 13 5 0 8 4 5 9
-3 5 0 14 7 20 7 5 24 33 37 61 13 27 27 50 32 50 5 0 7 4 3 9 -3 5 3 17 12
27 10 10 17 20 15 23 -4 9 41 94 58 109 8 7 10 11 4 8 -12 -6 35 95 49 105 5
3 8 8 7 10 -3 8 41 113 76 181 8 14 14 33 14 42 0 9 5 16 10 16 6 0 10 6 10
14 0 7 8 31 17 52 10 22 18 44 19 49 1 9 14 42 36 90 5 12 11 27 13 35 1 8 6
25 10 37 4 12 6 25 5 29 -1 4 3 10 8 13 6 3 12 17 13 31 2 14 8 28 12 31 4 3
9 16 10 27 1 12 5 22 9 22 4 0 5 7 2 15 -4 8 -1 15 7 15 7 0 10 3 6 6 -3 3 1
23 8 45 8 21 12 39 8 39 -3 0 0 7 7 15 7 8 9 15 4 15 -5 0 -2 5 6 10 13 9 13
10 0 10 -12 0 -12 2 -2 9 8 4 16 26 19 47 3 22 9 44 13 49 5 6 10 22 12 35 2
14 6 30 9 35 4 6 5 18 4 27 -2 10 1 18 6 18 5 0 8 3 7 8 -2 9 16 108 22 115 3
3 11 43 26 117 9 49 12 64 14 70 1 3 3 10 4 15 13 76 20 123 22 138 1 9 3 19
4 22 1 3 3 13 4 23 2 15 7 50 21 140 7 46 18 158 19 194 1 21 3 38 6 38 3 0 6
21 7 48 1 26 4 94 8 152 10 151 12 501 4 506 -4 2 -4 18 1 34 5 19 5 32 -2 36
-6 4 -5 10 3 15 8 5 10 9 4 9 -6 0 -10 29 -10 66 0 36 -4 68 -8 71 -4 3 -3 11
4 19 6 8 8 14 3 14 -5 0 -10 12 -11 28 -7 111 -19 247 -23 247 -1 0 -3 16 -5
35 -2 19 -6 51 -9 70 -3 19 -8 60 -12 90 -4 30 -9 57 -13 60 -3 3 -6 16 -7 30
-1 25 -7 63 -19 130 -4 19 -12 41 -17 48 -7 8 -7 12 1 12 8 0 9 5 2 19 -6 10
-12 33 -14 52 -2 19 -7 41 -10 49 -9 22 -50 193 -50 208 0 6 -4 12 -9 12 -6 0
-8 6 -5 13 2 6 -2 28 -9 47 -17 46 -38 123 -36 133 1 4 -2 7 -6 7 -4 0 -9 12
-10 26 -1 15 -7 33 -13 40 -6 7 -8 18 -4 24 3 5 1 10 -6 10 -7 0 -10 3 -6 6 3
3 -3 26 -14 51 -10 24 -19 53 -19 64 0 10 -4 19 -8 19 -5 0 -9 7 -10 15 -1 8
-3 22 -4 30 -1 8 -5 15 -10 15 -4 0 -8 8 -8 18 0 10 -5 23 -12 30 -7 7 -8 12
-4 12 5 0 2 10 -6 23 -8 12 -20 42 -28 67 -8 25 -18 48 -23 51 -4 3 -9 16 -10
27 -1 12 -5 22 -9 22 -4 0 -8 7 -8 15 0 8 -9 30 -20 50 -11 20 -20 42 -20 50
0 8 -5 15 -11 15 -5 0 -7 5 -4 10 3 6 1 10 -6 10 -7 0 -10 3 -6 6 3 4 -13 43
-36 88 -23 44 -40 84 -39 89 1 4 -3 7 -8 7 -6 0 -10 7 -10 15 0 9 -10 32 -23
53 -12 20 -31 55 -42 77 -11 22 -23 42 -26 45 -3 3 -12 20 -20 38 -8 17 -16
32 -20 32 -3 0 -11 16 -19 35 -8 19 -17 35 -22 35 -4 0 -8 5 -8 11 0 10 -14
32 -116 191 -24 37 -44 72 -44 78 0 5 -4 10 -9 10 -5 0 -20 19 -34 43 -14 23
-37 56 -51 72 -14 17 -26 34 -26 39 0 5 -9 17 -21 27 -11 9 -21 21 -22 26 -1
4 -7 15 -14 23 -6 8 -29 38 -49 65 -101 134 -136 176 -176 213 -10 9 -18 20
-18 24 0 14 -38 47 -46 40 -4 -4 -4 -2 -1 4 3 6 -24 43 -61 82 -37 39 -81 87
-99 106 -17 19 -34 32 -37 29 -3 -4 -6 0 -6 7 0 13 -169 180 -182 180 -5 0 -8
7 -8 15 0 8 -4 15 -9 15 -5 0 -33 23 -61 50 -28 28 -53 50 -56 50 -5 0 -26 18
-94 83 -21 20 -43 37 -47 37 -5 0 -15 9 -23 20 -8 11 -19 20 -24 20 -5 0 -19
11 -32 26 -13 14 -24 23 -24 20 0 -6 -38 24 -71 56 -9 9 -20 14 -23 11 -3 -4
-6 -1 -6 5 0 7 -6 12 -13 12 -7 0 -18 9 -25 20 -7 12 -17 18 -22 15 -5 -3 -13
3 -19 12 -6 10 -11 14 -11 8 0 -5 -7 1 -16 13 -8 12 -22 22 -30 22 -8 0 -14 5
-14 10 0 6 -7 10 -15 10 -8 0 -15 5 -15 10 0 6 -11 15 -25 20 -14 5 -25 14
-25 20 0 6 -4 9 -9 5 -6 -3 -14 3 -20 12 -5 10 -11 16 -13 13 -2 -2 -31 15
-65 38 -35 24 -63 39 -63 35 0 -4 -4 -3 -8 2 -4 6 -29 25 -57 43 -27 17 -56
36 -62 42 -7 6 -13 8 -13 5 0 -7 -84 47 -88 57 -2 4 -10 4 -18 1 -8 -3 -14 0
-14 5 0 6 -16 16 -35 23 -19 7 -35 16 -35 20 0 4 -15 13 -32 20 -18 7 -55 26
-83 42 -27 16 -51 29 -52 28 -2 0 -40 17 -85 39 -46 22 -88 40 -95 40 -6 0
-13 5 -15 11 -2 5 -10 11 -18 13 -14 2 -41 13 -127 53 -21 10 -42 18 -48 19
-5 0 -26 8 -45 17 -32 14 -68 29 -80 31 -3 1 -14 7 -25 13 -11 6 -23 12 -27
12 -44 7 -68 15 -68 21 0 4 -15 11 -32 15 -41 10 -28 5 -128 40 -47 16 -91 30
-97 31 -7 1 -43 12 -80 24 -38 12 -75 23 -84 25 -9 2 -33 8 -53 13 -20 6 -36
8 -36 5 0 -3 -6 0 -14 6 -13 11 -55 21 -98 24 -10 1 -18 4 -18 8 0 3 -10 5
-22 5 -13 -1 -27 1 -33 5 -9 7 -69 19 -107 22 -10 1 -18 4 -18 8 0 3 -13 5
-30 4 -16 -1 -30 1 -30 4 0 4 -12 8 -27 9 -16 1 -39 4 -53 7 -57 12 -96 18
-117 19 -13 0 -23 3 -23 6 0 3 -10 6 -22 7 -34 1 -133 11 -133 13 0 3 -47 8
-102 12 -29 1 -53 5 -53 8 0 3 -11 5 -25 5 -14 0 -25 -4 -25 -8 0 -5 -6 -5
-12 0 -14 8 -67 14 -165 16 -35 1 -63 6 -63 11 0 5 -6 3 -13 -3 -8 -6 -17 -8
-21 -4 -7 7 -465 11 -472 4z"/>
</g>
</svg>
