<?xml version="1.0" encoding="UTF-8"?>
<svg id="_Слой_2" data-name="Слой 2" xmlns="http://www.w3.org/2000/svg" viewBox="0 0 459.33 138.51">
  <defs>
    <style>
      .cls-1 {
        fill: #00676a;
      }
    </style>
  </defs>
  <g id="_Слой_1-2" data-name="Слой 1">
    <g>
      <path class="cls-1" d="M214.44,59.44h16.05L211.28,1.25h-18.12l-19.2,58.19h16.13l2.49-8.4h19.37l2.49,8.4Zm-18.04-21.2l5.82-19.79,5.9,19.79h-11.72Z"/>
      <polygon class="cls-1" points="267.06 28.18 281.11 51.46 282.61 51.46 296.74 28.1 296.74 59.44 311.54 59.44 311.54 1.25 296.74 1.25 281.86 26.11 267.06 1.25 252.18 1.25 252.18 59.44 267.06 59.44 267.06 28.18"/>
      <path class="cls-1" d="M375.64,6.98c-3.99-3.83-8.92-5.74-14.8-5.74h-22.61V59.44h14.88v-17.46h7.73c5.87,0,10.81-1.91,14.8-5.74s5.99-8.7,5.99-14.63-1.99-10.81-5.99-14.63Zm-10.6,19.12c-1.14,1.16-2.54,1.74-4.2,1.74h-7.73V15.46h7.73c1.66,0,3.06,.57,4.2,1.7,1.13,1.14,1.7,2.62,1.7,4.45s-.57,3.33-1.7,4.49Z"/>
      <path class="cls-1" d="M450.48,8.77c-5.9-5.85-13.12-8.77-21.66-8.77s-15.75,2.93-21.66,8.77c-5.9,5.85-8.85,13.04-8.85,21.57s2.95,15.73,8.85,21.57c5.9,5.85,13.12,8.77,21.66,8.77s15.75-2.92,21.66-8.77c5.9-5.85,8.85-13.04,8.85-21.57s-2.95-15.73-8.85-21.57Zm-10.43,32.92c-2.99,2.97-6.73,4.45-11.22,4.45s-8.23-1.48-11.22-4.45c-2.99-2.96-4.49-6.75-4.49-11.35s1.5-8.38,4.49-11.35,6.73-4.45,11.22-4.45,8.23,1.48,11.22,4.45c2.99,2.97,4.49,6.75,4.49,11.35s-1.5,8.38-4.49,11.35Z"/>
      <polygon class="cls-1" points="220.06 90.07 216.67 90.07 210.11 96.77 210.11 90.07 207.47 90.07 207.47 105.24 210.11 105.24 210.11 98.05 217.03 105.24 220.31 105.24 212.81 97.41 220.06 90.07"/>
      <path class="cls-1" d="M235.81,105.24h2.64v-15.17h-11.26v8.68c0,1.62-.26,2.73-.77,3.32s-1.29,.82-2.32,.68v2.49c1.82,.16,3.23-.25,4.23-1.23,1-.98,1.5-2.71,1.5-5.2v-6.19h5.98v12.62Z"/>
      <polygon class="cls-1" points="256.02 105.24 258.63 105.24 258.63 90.07 256.51 90.07 248.1 100.72 248.1 90.07 245.49 90.07 245.49 105.24 247.62 105.24 256.02 94.59 256.02 105.24"/>
      <polygon class="cls-1" points="276.17 105.24 278.81 105.24 278.81 90.07 276.17 90.07 276.17 96.38 268.31 96.38 268.31 90.07 265.67 90.07 265.67 105.24 268.31 105.24 268.31 98.9 276.17 98.9 276.17 105.24"/>
      <polygon class="cls-1" points="296.38 105.24 298.99 105.24 298.99 90.07 296.86 90.07 288.46 100.72 288.46 90.07 285.85 90.07 285.85 105.24 287.97 105.24 296.38 94.59 296.38 105.24"/>
      <polygon class="cls-1" points="316.53 105.24 319.17 105.24 319.17 90.07 316.53 90.07 316.53 96.38 308.67 96.38 308.67 90.07 306.03 90.07 306.03 105.24 308.67 105.24 308.67 98.9 316.53 98.9 316.53 105.24"/>
      <polygon class="cls-1" points="326.21 105.24 328.85 105.24 328.85 92.61 336.16 92.61 336.16 90.07 326.21 90.07 326.21 105.24"/>
      <path class="cls-1" d="M348.02,89.67c-2.22,0-4.11,.77-5.66,2.31-1.55,1.54-2.32,3.43-2.32,5.67s.77,4.14,2.32,5.67,3.43,2.31,5.66,2.31,4.12-.77,5.67-2.31,2.34-3.43,2.34-5.67-.78-4.14-2.34-5.67c-1.56-1.54-3.45-2.31-5.67-2.31Zm3.82,11.84c-1.03,1.03-2.31,1.55-3.82,1.55s-2.76-.52-3.79-1.55c-1.03-1.03-1.55-2.32-1.55-3.85s.52-2.82,1.55-3.85c1.03-1.03,2.3-1.55,3.79-1.55s2.79,.52,3.82,1.55c1.03,1.03,1.55,2.32,1.55,3.85s-.51,2.82-1.55,3.85Z"/>
      <path class="cls-1" d="M372.3,97.44c1.09-.71,1.64-1.79,1.64-3.25,0-1.23-.41-2.23-1.24-2.99s-2-1.14-3.52-1.14h-6.98v15.17h7.59c1.56,0,2.76-.4,3.6-1.2,.84-.8,1.26-1.83,1.26-3.08,0-1.7-.78-2.87-2.34-3.52Zm-7.53-5.01h4.28c1.54,0,2.31,.65,2.31,1.94s-.77,2.03-2.31,2.03h-4.28v-3.98Zm6.63,9.86c-.41,.37-1.01,.55-1.78,.55h-4.85v-4.1h4.85c.77,0,1.36,.18,1.78,.53,.41,.36,.62,.85,.62,1.47,0,.67-.21,1.19-.62,1.55Z"/>
      <path class="cls-1" d="M393.08,92.68c-1.31-2-3.23-3.01-5.73-3.01-2.12,0-3.94,.78-5.43,2.32-1.5,1.55-2.25,3.43-2.25,5.66s.75,4.11,2.25,5.66c1.5,1.55,3.31,2.32,5.43,2.32,2.51,0,4.42-1,5.73-3.01v2.61h2.64v-15.17h-2.64v2.61Zm-1.55,8.85c-1.03,1.04-2.32,1.56-3.85,1.56s-2.79-.52-3.82-1.56c-1.03-1.04-1.55-2.33-1.55-3.87s.52-2.83,1.55-3.87c1.03-1.04,2.31-1.56,3.82-1.56s2.82,.52,3.85,1.56c1.03,1.04,1.55,2.33,1.55,3.87s-.51,2.83-1.55,3.87Z"/>
      <path class="cls-1" d="M403.92,91.46c-.99,.93-1.49,2.09-1.49,3.49,0,1.13,.35,2.13,1.06,2.98,.71,.85,1.63,1.41,2.76,1.7l-4.43,5.61h3.22l4.25-5.46h2.22v5.46h2.61v-15.17h-6.46c-1.5,0-2.74,.47-3.73,1.4Zm7.59,1.06v4.89h-3.76c-.75,0-1.39-.22-1.91-.67-.53-.44-.79-1.03-.79-1.76s.26-1.35,.79-1.79,1.16-.67,1.91-.67h3.76Z"/>
      <polygon class="cls-1" points="246.08 122.94 242.69 122.94 236.13 129.64 236.13 122.94 233.49 122.94 233.49 138.11 236.13 138.11 236.13 130.92 243.05 138.11 246.33 138.11 238.83 130.28 246.08 122.94"/>
      <path class="cls-1" d="M257.55,122.54c-2.22,0-4.11,.77-5.66,2.31-1.55,1.54-2.32,3.43-2.32,5.67s.77,4.14,2.32,5.67,3.43,2.31,5.66,2.31,4.12-.77,5.67-2.31,2.34-3.43,2.34-5.67-.78-4.14-2.34-5.67c-1.56-1.54-3.45-2.31-5.67-2.31Zm3.82,11.84c-1.03,1.03-2.31,1.55-3.82,1.55s-2.76-.52-3.79-1.55c-1.03-1.03-1.55-2.32-1.55-3.85s.52-2.82,1.55-3.85c1.03-1.03,2.3-1.55,3.79-1.55s2.79,.52,3.82,1.55c1.03,1.03,1.55,2.32,1.55,3.85s-.51,2.82-1.55,3.85Z"/>
      <polygon class="cls-1" points="279.31 130.62 274.55 122.94 271.72 122.94 271.72 138.11 274.33 138.11 274.33 127.09 279.16 134.86 279.49 134.86 284.32 127.09 284.32 138.11 286.9 138.11 286.9 122.94 284.07 122.94 279.31 130.62"/>
      <polygon class="cls-1" points="293.97 138.11 296.61 138.11 296.61 125.46 304.47 125.46 304.47 138.11 307.11 138.11 307.11 122.94 293.97 122.94 293.97 138.11"/>
      <path class="cls-1" d="M326.71,125.55c-1.31-2-3.23-3.01-5.73-3.01-2.12,0-3.94,.78-5.43,2.32-1.5,1.55-2.25,3.43-2.25,5.66s.75,4.11,2.25,5.66c1.5,1.55,3.31,2.32,5.43,2.32,2.51,0,4.42-1,5.73-3.01v2.61h2.64v-15.17h-2.64v2.61Zm-1.55,8.85c-1.03,1.04-2.32,1.56-3.85,1.56s-2.79-.52-3.82-1.56c-1.03-1.04-1.55-2.33-1.55-3.87s.52-2.83,1.55-3.87c1.03-1.04,2.31-1.56,3.82-1.56s2.82,.52,3.85,1.56c1.03,1.04,1.55,2.33,1.55,3.87s-.51,2.83-1.55,3.87Z"/>
      <polygon class="cls-1" points="346.89 129.25 339.03 129.25 339.03 122.94 336.39 122.94 336.39 138.11 339.03 138.11 339.03 131.77 346.89 131.77 346.89 138.11 349.53 138.11 349.53 122.94 346.89 122.94 346.89 129.25"/>
      <polygon class="cls-1" points="359.18 133.59 359.18 122.94 356.57 122.94 356.57 138.11 358.69 138.11 367.09 127.46 367.09 138.11 369.7 138.11 369.7 122.94 367.58 122.94 359.18 133.59"/>
      <path class="cls-1" d="M377.9,124.33c-.99,.93-1.49,2.09-1.49,3.49,0,1.13,.35,2.13,1.06,2.98,.71,.85,1.63,1.41,2.76,1.7l-4.43,5.61h3.22l4.25-5.46h2.22v5.46h2.61v-15.17h-6.46c-1.5,0-2.74,.47-3.73,1.4Zm7.59,1.06v4.89h-3.76c-.75,0-1.39-.22-1.91-.67-.53-.44-.79-1.03-.79-1.76s.26-1.35,.79-1.79,1.16-.67,1.91-.67h3.76Z"/>
      <path class="cls-1" d="M124.92,53.61C124.92,24.05,100.87,0,71.31,0S17.7,24.05,17.7,53.61c0,3.26,1.06,16.25,15.71,35.77L0,122.8l15.31,15.31,32.38-32.38c4.78,4.82,10.3,9.89,16.72,15.2l6.9,5.7,6.9-5.7c6.42-5.31,11.94-10.38,16.72-15.2l32.38,32.38,15.31-15.31-33.42-33.42c14.66-19.53,15.71-32.51,15.71-35.77Zm-53.61,44.6c-15.01-13.8-31.95-33.6-31.95-44.6,0-17.62,14.33-31.95,31.95-31.95s31.95,14.33,31.95,31.95c0,11-16.94,30.8-31.95,44.6Z"/>
    </g>
  </g>
</svg>